<svg xmlns="http://www.w3.org/2000/svg" viewBox="0 0 74.4631 10.0536"><defs><style>.a{fill:#ed1c24;}.b{fill:#fff;}</style></defs><title>he_logo_color_full_horiz</title><path class="a" d="M270.6087,249.7128a1.1785,1.1785,0,0,0,.1054.127,1.1572,1.1572,0,0,0,.1792.1525l0.0042,0.0035a1.1524,1.1524,0,0,0,1.2554.0289c0.0187-.0113.0349-0.0255,0.0526-0.0381a1.2118,1.2118,0,0,0,.2844-0.2791,1.1223,1.1223,0,0,0,.1872-0.3892,1.1191,1.1191,0,0,0-.3636-1.1571c-0.0121-.0106-0.0215-0.0239-0.0341-0.034a1.2011,1.2011,0,0,0-.2954-0.1729,1.124,1.124,0,0,0-.4328-0.0892,1.1376,1.1376,0,0,0-.4364.0876,1.1847,1.1847,0,0,0-.33.2072l-0.0149.0114A1.1619,1.1619,0,0,0,270.6087,249.7128Z" transform="translate(-267.2284 -247.8651)"/><path class="a" d="M272.7505,253.8251a2.7579,2.7579,0,0,1,.5037-0.6079,2.7536,2.7536,0,0,1,1.2072-.6472c0.0691-.0172.1386-0.0325,0.2089-0.0441l0.0117,0.0012c0.0249,0,.0481-0.0058.0727-0.0073l0.0051,0c0.0279-.0018.0554-0.0047,0.0829-0.0083l0.0054-.0008c0.0332-.0038.0664-0.0084,0.0991-0.0152l0.0055-.0008a1.1829,1.1829,0,0,0,.17-0.0526l0.0055-.0026c0.0186-.0077.0366-0.0165,0.0547-0.0253a1.193,1.193,0,0,0,.1457-0.0791c0.02-.0134.04-0.0281,0.0593-0.043a1.1951,1.1951,0,0,0,.1025-0.0846q0.0318-.0292.0617-0.061a1.1927,1.1927,0,0,0,.0864-0.1047c0.0141-.018.0283-0.0359,0.0414-0.0551a1.1894,1.1894,0,0,0,.0777-0.1432c0.0107-.0211.0212-0.0423,0.03-0.0638a1.1959,1.1959,0,0,0,.0524-0.1687c0.0046-.0173.0092-0.0347,0.0128-0.0521a1.19,1.19,0,0,0,.02-0.1975l0.0017-.0377a1.18,1.18,0,0,0-.0184-0.1883l-0.0064-.0435a1.1641,1.1641,0,0,0-.0518-0.1728l-0.0147-.042a1.1729,1.1729,0,0,0-.0868-0.1661l-0.0158-.0269a1.1625,1.1625,0,0,0-.1031-0.1308c-0.0065-.0073-0.0115-0.0158-0.0181-0.0229l-0.0154-.0173a1.1972,1.1972,0,0,0-.1479-0.1293l-0.0213-.016c-0.0311-.022-0.0654-0.0392-0.0986-0.0583-0.0247-.0142-0.0478-0.031-0.0736-0.0435l-0.0181-.0086a1.193,1.193,0,0,0-.2-0.0724l-0.0041-.001a1.2158,1.2158,0,0,0-.1692-0.0268l-0.0016,0-0.0019,0c-0.0172-.0018-0.0333-0.0069-0.0508-0.008-0.0338-.0023-0.0677-0.0055-0.1014-0.0046l-0.026.0026c-0.0176,0-.0354-0.0027-0.053-0.0019-0.0231.0015-.0458,0.0046-0.0684,0.0076a1.1935,1.1935,0,0,0-.1341.0212q-0.0425.01-.0839,0.0222a1.1889,1.1889,0,0,0-.1249.0453c-0.0226.0092-.0453,0.0185-0.0671,0.0292a1.1875,1.1875,0,0,0-.1421.0853c-0.0168.011-.0335,0.022-0.05,0.0342l-0.005.0035a1.1839,1.1839,0,0,0-.1315.1193l-0.0035.0043c-0.0225.0248-.0433,0.051-0.0634,0.0777l-0.0034.0042c-0.0146.0186-.0284,0.0377-0.042,0.0572l-0.0073.01-0.0012.0017-0.0016.0025c-0.0138.02-.0306,0.0374-0.0432,0.0588l-0.005.0107c-0.0458.0546-.0943,0.1067-0.1441,0.1575a2.6389,2.6389,0,0,1-.8321.581,2.76,2.76,0,0,1-.32.1174c-0.0134.0039-.0263,0.0092-0.04,0.0128-0.0465.0125-.0953,0.0186-0.1427,0.0288-0.044.01-.088,0.0191-0.1326,0.0267-0.0212.0035-.0426,0.006-0.0639,0.0091s-0.0441.0069-.0665,0.0094a2.5776,2.5776,0,0,1-.2973.02l-0.0067,0H271.55l-0.0066,0a2.5782,2.5782,0,0,1-.2974-0.02c-0.0228-.0026-0.0452-0.0063-0.0678-0.01-0.0209-.003-0.0418-0.0055-0.0626-0.0089-0.0446-.0076-0.0887-0.017-0.1326-0.0267-0.0474-.01-0.0963-0.0163-0.1427-0.0288-0.0141-.0038-0.0274-0.0093-0.0413-0.0134a2.8824,2.8824,0,0,1-.388-0.1456c-0.0466-.02-0.0915-0.0441-0.1367-0.0672-0.0321-.0168-0.0664-0.03-0.0978-0.0481a2.8176,2.8176,0,0,1-.5878-0.4491c-0.0094-.0094-0.0178-0.02-0.0271-0.0292-0.04-.0408-0.079-0.0819-0.1161-0.1252l-0.0094-.01c-0.01-.0169-0.0211-0.033-0.0317-0.0495-0.018-.0268-0.0377-0.0517-0.0574-0.0765a1.1056,1.1056,0,0,0-.0748-0.09c-0.0185-.0191-0.0395-0.0349-0.0591-0.0525a1.1386,1.1386,0,0,0-.14-0.11c-0.0138-.0091-0.0284-0.0165-0.0425-0.0249a1.3229,1.3229,0,0,0-.1488-0.0728c-0.0136-.0059-0.0259-0.0142-0.04-0.0195l-0.037-.013a1.3009,1.3009,0,0,0-.1475-0.0418l-0.0048-.0012c-0.0267-.0053-0.0536-0.0084-0.0806-0.0119a1.1226,1.1226,0,0,0-.1251-0.0126c-0.0337-.0009-0.0675.0023-0.1013,0.0046a1.2,1.2,0,0,0-.2235.0354l-0.0042.001a1.193,1.193,0,0,0-.2.0724l-0.018.0086a1.1968,1.1968,0,0,0-.1722.1018l-0.0213.016a1.2,1.2,0,0,0-.1479.1294l-0.0152.017c-0.0154.0166-.0275,0.0359-0.042,0.0533a1.2157,1.2157,0,0,0-.1009.1218c-0.0121.0252-.0214,0.0514-0.0317,0.0773-0.0169.0313-.0356,0.0615-0.0494,0.0946l-0.0147.042a1.1682,1.1682,0,0,0-.0517.1728l-0.0065.0435a1.18,1.18,0,0,0-.0183.1883l0.0017,0.0377a1.2008,1.2008,0,0,0,.02.1975c0.0037,0.0174.0082,0.0348,0.0129,0.0521a1.1915,1.1915,0,0,0,.0524.1687c0.009,0.0215.02,0.0426,0.03,0.0638a1.1894,1.1894,0,0,0,.0777.1432c0.013,0.0192.0272,0.0371,0.0413,0.0551a1.1927,1.1927,0,0,0,.0864.1047q0.03,0.0317.0617,0.061a1.1946,1.1946,0,0,0,.1025.0846c0.0194,0.0148.039,0.03,0.0593,0.043a1.19,1.19,0,0,0,.1457.0791c0.018,0.0089.0361,0.0177,0.0547,0.0253l0.0055,0.0026a1.1815,1.1815,0,0,0,.17.0526l0.0055,0.0008c0.0327,0.0068.0659,0.0114,0.0992,0.0152l0.0054,0.0008c0.0275,0.0037.055,0.0066,0.0829,0.0083l0.0051,0c0.0245,0.0015.0478,0.0073,0.0727,0.0073l0.0117-.0012c0.07,0.0117.14,0.027,0.2089,0.0441a2.8113,2.8113,0,0,1,.6855.27,2.775,2.775,0,0,1,.5193.3788c0.0219,0.02.046,0.0366,0.0674,0.0573a2.9875,2.9875,0,0,1,.1889.2341,2.5238,2.5238,0,0,1,.184.2891,2.7191,2.7191,0,0,1,.2961.9155,2.7929,2.7929,0,0,1,.03.4065c0,0.0206.0027,0.0413,0.0022,0.0618a2.8108,2.8108,0,0,1-.1159.7275c-0.02.0682-.0424,0.1359-0.0681,0.2024l-0.007.0095c-0.0126.0214-.0194,0.0445-0.0306,0.0663l-0.0024.0045c-0.0126.025-.0241,0.05-0.0349,0.0757l-0.002.0051c-0.0137.0306-.0266,0.0615-0.0373,0.0931l-0.002.0052a1.1843,1.1843,0,0,0-.0408.1728l-0.0006.0061c-0.0029.02-.0044,0.04-0.006,0.06a1.19,1.19,0,0,0-.0059.1657c0.0013,0.0243.004,0.0486,0.0069,0.0729a1.2033,1.2033,0,0,0,.0208.1312q0.009,0.0423.0212,0.0841a1.2049,1.2049,0,0,0,.0463.1276c0.0084,0.0213.0166,0.0426,0.0265,0.0636a1.1874,1.1874,0,0,0,.0838.14c0.0128,0.02.0256,0.04,0.04,0.0584a1.1844,1.1844,0,0,0,.1187.1308c0.0126,0.0128.0252,0.0255,0.0383,0.0375a1.2006,1.2006,0,0,0,.16.1175l0.0316,0.0206a1.1879,1.1879,0,0,0,.1715.08l0.0408,0.0166a1.1688,1.1688,0,0,0,.1751.0432l0.0437,0.0086a1.1726,1.1726,0,0,0,.1871.01c0.01,0,.0208,0,0.0312,0a1.1873,1.1873,0,0,0,.194-0.0264l0.0227-.0045a1.1985,1.1985,0,0,0,.1865-0.0617l0.0247-.01a1.1949,1.1949,0,0,0,.1751-0.0965l0.0166-.0112a1.1917,1.1917,0,0,0,.1639-0.1354l0.003-.0031a1.2,1.2,0,0,0,.144-0.1745c0.0192-.028.0392-0.0555,0.0555-0.085a1.122,1.122,0,0,0,.0527-0.1142c0.0107-.025.0217-0.05,0.0307-0.0754l0.0014-.0048a1.297,1.297,0,0,0,.0389-0.1483l0.0076-.0385a1.2648,1.2648,0,0,0,.0163-0.2093c0-.0133,0-0.0266,0-0.04a1.1359,1.1359,0,0,0-.03-0.264,1.2117,1.2117,0,0,0-.0641-0.1849c-0.0129-.03-0.0279-0.0591-0.0434-0.0883-0.0129-.0381-0.0222-0.0772-0.0334-0.1159a2.8,2.8,0,0,1-.1094-0.835c0.001-.0478.0085-0.0956,0.012-0.1434a2.7718,2.7718,0,0,1,.0567-0.3911A2.7173,2.7173,0,0,1,272.7505,253.8251Z" transform="translate(-267.2284 -247.8651)"/><path class="b" d="M311.98,254.8858v-2.7372h1.9472v0.1877h-1.744v1.0754h1.5681v0.1877h-1.5681v1.0987h1.7636v0.1877H311.98Z" transform="translate(-267.2284 -247.8651)"/><path class="b" d="M317.7147,254.8858l-1.9278-2.4321v2.4321h-0.1955v-2.7372h0.1916l1.8887,2.3814v-2.3814h0.1955v2.7372h-0.1525Z" transform="translate(-267.2284 -247.8651)"/><path class="b" d="M320.9274,254.9329a1.3338,1.3338,0,0,1-1.3764-1.4078v-0.0078a1.3669,1.3669,0,0,1,1.3528-1.4156,1.4358,1.4358,0,0,1,1.001.36l-0.1329.1525a1.2289,1.2289,0,0,0-.8606-0.3282,1.1728,1.1728,0,0,0-1.1491,1.192v0.04a1.1417,1.1417,0,0,0,1.1729,1.2357,1.406,1.406,0,0,0,.872-0.3128v-0.7859h-0.9149v-0.1877h1.11v1.0558A1.6461,1.6461,0,0,1,320.9274,254.9329Z" transform="translate(-267.2284 -247.8651)"/><path class="b" d="M323.7571,254.8858v-2.7372h0.2036v2.7372h-0.2036Z" transform="translate(-267.2284 -247.8651)"/><path class="b" d="M327.915,254.8858l-1.9275-2.4321v2.4321H325.792v-2.7372h0.1914l1.8887,2.3814v-2.3814h0.1955v2.7372H327.915Z" transform="translate(-267.2284 -247.8651)"/><path class="b" d="M330.9518,254.9288a1.0679,1.0679,0,0,1-1.1224-1.1809v-1.5992h0.2036v1.58a0.8923,0.8923,0,0,0,.9266,1.0169,0.87,0.87,0,0,0,.911-0.9973v-1.5992h0.2032v1.5759A1.0735,1.0735,0,0,1,330.9518,254.9288Z" transform="translate(-267.2284 -247.8651)"/><path class="b" d="M333.8634,254.8858v-2.7372h0.2036v2.7372h-0.2036Z" transform="translate(-267.2284 -247.8651)"/><path class="b" d="M336.86,252.3364v2.5495h-0.2032v-2.5495h-0.9544v-0.1877h2.1116v0.1877H336.86Z" transform="translate(-267.2284 -247.8651)"/><path class="b" d="M340.5184,253.799v1.0869h-0.2032v-1.0832l-1.1731-1.654h0.2543l1.0243,1.47,1.0284-1.47h0.2425Z" transform="translate(-267.2284 -247.8651)"/><path class="b" d="M289.5394,254.8864h-2.1463a1.2181,1.2181,0,0,1-1.2168-1.2168v-1.5215h0.7269V253.67a0.49,0.49,0,0,0,.49.49h2.1463a0.49,0.49,0,0,0,.49-0.49v-1.5215h0.7269V253.67A1.2181,1.2181,0,0,1,289.5394,254.8864Z" transform="translate(-267.2284 -247.8651)"/><path class="b" d="M294.5369,254.8864a0.3859,0.3859,0,0,1-.2585-0.099l-1.596-1.432v1.531h-0.7742v-2.3983a0.387,0.387,0,0,1,.6456-0.2881l1.9831,1.7793L296.52,252.2a0.387,0.387,0,0,1,.6456.2881v2.3983h-0.7742v-1.531l-1.5961,1.432A0.3857,0.3857,0,0,1,294.5369,254.8864Z" transform="translate(-267.2284 -247.8651)"/><path class="b" d="M307.9787,254.8864a0.3634,0.3634,0,0,1-.1769-0.046l-3.07-1.71v1.7562h-0.7269v-2.3748a0.3634,0.3634,0,0,1,.54-0.3175l3.07,1.71v-1.7562h0.7269v2.3748A0.3635,0.3635,0,0,1,307.9787,254.8864Z" transform="translate(-267.2284 -247.8651)"/><path class="b" d="M300.6455,253.0451l1.713,1.8413h1.028l-2.49-2.6819a0.3544,0.3544,0,0,0-.501,0l-2.49,2.6817h1.028Z" transform="translate(-267.2284 -247.8651)"/><path class="b" d="M284.4652,252.51a1.2128,1.2128,0,0,0-.8642-0.3614l-2.1462-.0042a0.49,0.49,0,0,1-.49-0.49v-1.5215H280.238v1.5215a1.2188,1.2188,0,0,0,1.2168,1.2168h0.0843l1.9858,0.0042h0.0761a0.49,0.49,0,0,1,.49.49v1.5215h0.7269v-1.5215A1.2126,1.2126,0,0,0,284.4652,252.51Z" transform="translate(-267.2284 -247.8651)"/><circle class="a" cx="13.5285" cy="6.5024" r="0.5189"/></svg>