<svg xmlns="http://www.w3.org/2000/svg" viewBox="0 0 89.5006 78.1738"><defs><style>.a{fill:#ed1c24;}.b{fill:#000000;}</style></defs><title>he_logo_text_rb_vert</title><path class="a" d="M204.4742,86.0705a5.6436,5.6436,0,0,0,.5048.6082,5.542,5.542,0,0,0,.858.73c0.0072,0.0049.0125,0.0119,0.02,0.0168a5.519,5.519,0,0,0,6.0121.1386c0.0893-.0542.1673-0.1222,0.252-0.1823a5.8031,5.8031,0,0,0,1.3619-1.3366,5.3748,5.3748,0,0,0,.8964-1.8641,5.3592,5.3592,0,0,0-1.741-5.5415c-0.0579-.0508-0.1031-0.1145-0.1633-0.163a5.7522,5.7522,0,0,0-1.4146-.828,5.3829,5.3829,0,0,0-2.0725-.4271,5.448,5.448,0,0,0-2.09.4193,5.6735,5.6735,0,0,0-1.5812.9921c-0.0224.02-.0494,0.0343-0.0714,0.0545A5.5644,5.5644,0,0,0,204.4742,86.0705Z" transform="translate(-162.8658 -77.2219)"/><path class="a" d="M214.7311,105.7641a13.2074,13.2074,0,0,1,2.4121-2.9112,13.1867,13.1867,0,0,1,5.7812-3.0992c0.3308-.0821.6637-0.1555,1.0005-0.2114,0.0192,0,.0366.0057,0.056,0.0057,0.1191,0,.2306-0.0279.348-0.0351l0.0244-.0011c0.1338-.0084.2655-0.0225,0.397-0.04l0.0258-.0039c0.1591-.0182.3181-0.04,0.4747-0.0727l0.0264-.004a5.6648,5.6648,0,0,0,.8121-0.2521l0.0264-.0123c0.0892-.0366.1753-0.079,0.2618-0.1214a5.7131,5.7131,0,0,0,.6978-0.3788c0.097-.0642.1907-0.1348,0.2838-0.2059a5.7232,5.7232,0,0,0,.4909-0.405q0.1523-.14.2955-0.292a5.7118,5.7118,0,0,0,.4136-0.5014c0.0676-.0862.1355-0.1719,0.1981-0.2637a5.6962,5.6962,0,0,0,.3721-0.6856c0.051-.1011.1016-0.2024,0.1449-0.3053a5.7272,5.7272,0,0,0,.2508-0.8081c0.0219-.083.044-0.166,0.0614-0.2495a5.6966,5.6966,0,0,0,.0954-0.9459c0.0038-.06.0077-0.1206,0.0084-0.1808a5.6512,5.6512,0,0,0-.088-0.9015c-0.0085-.07-0.0184-0.1395-0.0308-0.2086a5.575,5.575,0,0,0-.248-0.8274q-0.0326-.1013-0.0706-0.201a5.6171,5.6171,0,0,0-.4156-0.7954c-0.0241-.0435-0.05-0.0862-0.0756-0.1289a5.5673,5.5673,0,0,0-.4939-0.6264c-0.0311-.035-0.055-0.0756-0.0867-0.11-0.0241-.0281-0.0492-0.0551-0.0736-0.0827a5.7333,5.7333,0,0,0-.7084-0.6193c-0.033-.0264-0.0683-0.0509-0.1019-0.0766-0.1487-.1055-0.3134-0.1878-0.472-0.2791-0.1185-.0682-0.2289-0.1487-0.3525-0.2085-0.0288-.0146-0.0581-0.0268-0.0865-0.041a5.7132,5.7132,0,0,0-.9577-0.3467l-0.02-.0049a5.8223,5.8223,0,0,0-.81-0.1282l-0.0079-.0019-0.0092-.0008c-0.0823-.0088-0.16-0.0332-0.2431-0.0384-0.162-.0111-0.3241-0.0264-0.4854-0.0223-0.0422.0013-.0827,0.01-0.1245,0.0125-0.0845-.0014-0.17-0.0131-0.254-0.0091-0.1108.007-.2192,0.0222-0.3276,0.0365a5.7157,5.7157,0,0,0-.6421.1015q-0.2035.0461-.4017,0.1064a5.6933,5.6933,0,0,0-.5981.217c-0.1084.044-.2168,0.0888-0.3216,0.14a5.687,5.687,0,0,0-.6806.4087c-0.08.0528-.1606,0.1056-0.2376,0.1637l-0.0241.0166a5.67,5.67,0,0,0-.63.5714l-0.0167.02c-0.1077.1185-.2075,0.244-0.3038,0.372l-0.0164.02c-0.07.0888-.1362,0.18-0.2011,0.2739-0.0114.0163-.0241,0.0314-0.0351,0.0479l-0.0055.0084-0.0079.012c-0.0659.0975-.1466,0.1792-0.2068,0.2817-0.01.0166-.0142,0.0346-0.0238,0.0513-0.2193.2617-.4516,0.5111-0.69,0.7544a12.6374,12.6374,0,0,1-3.985,2.7825,13.2182,13.2182,0,0,1-1.5346.5622c-0.0642.0189-.126,0.0438-0.1911,0.0613-0.2225.06-.4564,0.0892-0.6833,0.1378-0.21.0468-.4213,0.0915-0.6351,0.128-0.1014.0166-.2041,0.0288-0.306,0.0434-0.1059.0152-.2113,0.0329-0.3184,0.0451a12.3439,12.3439,0,0,1-1.424.0959c-0.0109,0-.0212.0022-0.032,0.0022l-0.0064,0-0.007,0c-0.0107,0-.0209-0.0022-0.0318-0.0022a12.3468,12.3468,0,0,1-1.4241-.0959c-0.1093-.0125-0.2167-0.03-0.3247-0.046-0.1-.0144-0.2-0.0264-0.3-0.0425-0.2138-.0365-0.4246-0.0812-0.6349-0.128-0.2269-.0486-0.4609-0.0779-0.6835-0.1378-0.0674-.0182-0.131-0.0448-0.1979-0.0642a13.8035,13.8035,0,0,1-1.858-.6974c-0.2234-.0981-0.4384-0.2113-0.6545-0.3219-0.1538-.0806-0.3179-0.1438-0.4681-0.23a13.4935,13.4935,0,0,1-2.8148-2.1508c-0.045-.0449-0.0853-0.0944-0.13-0.14-0.19-.1953-0.3785-0.3923-0.5558-0.6-0.0144-.0167-0.0306-0.0315-0.045-0.0484-0.0487-.0808-0.1011-0.1582-0.1519-0.2369-0.0863-.1282-0.18-0.2475-0.2751-0.3665a5.2945,5.2945,0,0,0-.3584-0.4306c-0.0887-.0915-0.1891-0.167-0.2831-0.2516a5.4528,5.4528,0,0,0-.6692-0.5285c-0.0659-.0434-0.1359-0.0788-0.2034-0.1194a6.3352,6.3352,0,0,0-.7124-0.3484c-0.0653-.0282-0.1238-0.0678-0.1907-0.0934-0.0587-.0223-0.1181-0.0419-0.177-0.0623a6.23,6.23,0,0,0-.7064-0.2l-0.0231-.0059c-0.1277-.0255-0.2567-0.04-0.3858-0.0571a5.3764,5.3764,0,0,0-.5993-0.06c-0.1613-.0042-0.3232.0111-0.4852,0.0223a5.7488,5.7488,0,0,0-1.07.1694l-0.02.0049a5.7132,5.7132,0,0,0-.9577.3467c-0.0284.0142-.0576,0.0264-0.0863,0.041a5.7315,5.7315,0,0,0-.8245.4875c-0.0336.0258-.0686,0.05-0.1021,0.0766a5.7464,5.7464,0,0,0-.7084.62c-0.0244.0273-.049,0.0539-0.0726,0.0816-0.0736.0795-.1318,0.1718-0.2011,0.2551a5.822,5.822,0,0,0-.4834.5832c-0.0577.1205-.1026,0.2462-0.1517,0.37-0.0808.15-.17,0.2945-0.2366,0.4528-0.0253.0664-.0485,0.1335-0.0706,0.201a5.5945,5.5945,0,0,0-.2478.8274c-0.0124.0691-.0223,0.1388-0.031,0.2086a5.6512,5.6512,0,0,0-.0878.9015c0.0007,0.06.0045,0.12,0.0082,0.1808a5.7507,5.7507,0,0,0,.0954.9459c0.0176,0.0835.0395,0.1665,0.0616,0.2495a5.7059,5.7059,0,0,0,.251.8081c0.0432,0.103.0937,0.2042,0.1447,0.3053a5.6962,5.6962,0,0,0,.3721.6856c0.0624,0.0918.13,0.1775,0.1979,0.2637a5.7118,5.7118,0,0,0,.4136.5014q0.1433,0.152.2956,0.292a5.7209,5.7209,0,0,0,.4907.405c0.093,0.0711.1867,0.1417,0.2839,0.2059a5.7008,5.7008,0,0,0,.6978.3788c0.0863,0.0424.1727,0.0847,0.2618,0.1214l0.0264,0.0123a5.6582,5.6582,0,0,0,.8121.2521l0.0263,0.004c0.1566,0.0325.3155,0.0545,0.4748,0.0727l0.0258,0.0039c0.1315,0.0175.2632,0.0315,0.3972,0.04l0.0243,0.0011c0.1173,0.0073.229,0.0351,0.348,0.0351,0.0192,0,.0366-0.0054.056-0.0057,0.3366,0.0559.67,0.1292,1.0005,0.2114a13.4631,13.4631,0,0,1,3.2826,1.2917,13.29,13.29,0,0,1,2.4871,1.8141c0.1049,0.0955.22,0.1753,0.3226,0.2743a14.3066,14.3066,0,0,1,.9046,1.1209,12.0862,12.0862,0,0,1,.8811,1.3844,13.0217,13.0217,0,0,1,1.4179,4.3841,13.3749,13.3749,0,0,1,.1414,1.9467c-0.0007.0985,0.0131,0.1977,0.01,0.2961a13.4609,13.4609,0,0,1-.555,3.4839c-0.0972.3266-.2033,0.6508-0.3261,0.9691-0.01.0163-.0238,0.0288-0.0336,0.0453-0.06.1026-.093,0.2129-0.1464,0.3175l-0.0114.0216c-0.0606.12-.1156,0.24-0.1673,0.3624l-0.01.0243c-0.0654.1464-.1272,0.2945-0.1787,0.4458l-0.01.0247a5.6714,5.6714,0,0,0-.1954.8275l-0.0028.0292c-0.0137.0955-.0211,0.1912-0.0286,0.2872a5.7,5.7,0,0,0-.0281.7935c0.006,0.1162.0191,0.2326,0.0331,0.3491a5.7625,5.7625,0,0,0,.0994.6284q0.0432,0.2025.1014,0.4029a5.77,5.77,0,0,0,.2215.6109c0.04,0.1021.0793,0.2041,0.1268,0.3046a5.6865,5.6865,0,0,0,.4015.6687c0.0611,0.0953.1228,0.19,0.1894,0.28a5.6719,5.6719,0,0,0,.5685.6265c0.06,0.0612.1208,0.1223,0.1835,0.18a5.75,5.75,0,0,0,.7664.5627c0.05,0.0339.1,0.0678,0.1512,0.0989a5.689,5.689,0,0,0,.8215.3823c0.0646,0.028.1295,0.0549,0.1953,0.0794a5.5973,5.5973,0,0,0,.8386.2069c0.0694,0.0153.1392,0.0293,0.2093,0.0412a5.6153,5.6153,0,0,0,.8961.0461c0.05,0.0012.1,0.0009,0.1494,0a5.6861,5.6861,0,0,0,.9291-0.1262c0.0365-.0064.0726-0.0142,0.1088-0.0213a5.7394,5.7394,0,0,0,.8931-0.2955c0.0395-.0151.0786-0.033,0.1181-0.0491a5.7223,5.7223,0,0,0,.8386-0.4622c0.0271-.0174.0525-0.0364,0.0793-0.0538a5.7068,5.7068,0,0,0,.785-0.6487l0.0144-.0146a5.7455,5.7455,0,0,0,.6895-0.8357c0.092-.1339.1876-0.2657,0.266-0.4069a5.3733,5.3733,0,0,0,.2523-0.5467c0.051-.12.1039-0.2383,0.1469-0.3613l0.0065-.0228a6.2112,6.2112,0,0,0,.1864-0.71c0.0124-.0613.0258-0.1225,0.0365-0.1843a6.0568,6.0568,0,0,0,.0781-1.0024c-0.0007-.0638.0012-0.1273,0-0.1911a5.44,5.44,0,0,0-.1454-1.2644,5.8029,5.8029,0,0,0-.3068-0.8853c-0.0616-.1448-0.1338-0.283-0.2078-0.4226-0.0617-.1826-0.1064-0.37-0.16-0.555a13.4069,13.4069,0,0,1-.524-3.9986c0.0047-.229.0408-0.4577,0.0576-0.6867a13.274,13.274,0,0,1,.2717-1.8729A13.013,13.013,0,0,1,214.7311,105.7641Z" transform="translate(-162.8658 -77.2219)"/><path class="b" d="M162.8658,155.3165v-4.6142h3.2825v0.3164h-2.94v1.8129h2.6435v0.3164h-2.6435V155h2.973v0.3164h-3.3156Z" transform="translate(-162.8658 -77.2219)"/><path class="b" d="M177.46,155.3165l-3.25-4.1v4.1h-0.3295v-4.6142h0.3229l3.1839,4.0145v-4.0145h0.3295v4.6142H177.46Z" transform="translate(-162.8658 -77.2219)"/><path class="b" d="M187.8026,155.3958a2.2485,2.2485,0,0,1-2.32-2.3733v-0.0131a2.3043,2.3043,0,0,1,2.2806-2.3864,2.42,2.42,0,0,1,1.6874.6066l-0.224.2571a2.0717,2.0717,0,0,0-1.4508-.5533,1.977,1.977,0,0,0-1.9372,2.0094v0.0666a1.9246,1.9246,0,0,0,1.9773,2.0831,2.37,2.37,0,0,0,1.47-.5273V153.24h-1.5423v-0.3164h1.8718v1.78A2.775,2.775,0,0,1,187.8026,155.3958Z" transform="translate(-162.8658 -77.2219)"/><path class="b" d="M197.4994,155.3165v-4.6142h0.3433v4.6142h-0.3433Z" transform="translate(-162.8658 -77.2219)"/><path class="b" d="M209.4355,155.3165l-3.2494-4.1v4.1h-0.3295v-4.6142h0.3226l3.1839,4.0145v-4.0145h0.3295v4.6142h-0.2571Z" transform="translate(-162.8658 -77.2219)"/><path class="b" d="M219.4815,155.3889a1.8,1.8,0,0,1-1.8922-1.9907v-2.6959h0.3433v2.6628a1.5042,1.5042,0,0,0,1.562,1.7143,1.4657,1.4657,0,0,0,1.5358-1.6812v-2.6959h0.3426v2.6566A1.81,1.81,0,0,1,219.4815,155.3889Z" transform="translate(-162.8658 -77.2219)"/><path class="b" d="M229.3165,155.3165v-4.6142H229.66v4.6142h-0.3433Z" transform="translate(-162.8658 -77.2219)"/><path class="b" d="M239.295,151.0186v4.2978h-0.3426v-4.2978h-1.6088v-0.3164h3.56v0.3164H239.295Z" transform="translate(-162.8658 -77.2219)"/><path class="b" d="M250.3887,153.4843v1.8322h-0.3426v-1.826l-1.9776-2.7883h0.4288l1.7267,2.4788,1.7336-2.4788h0.4088Z" transform="translate(-162.8658 -77.2219)"/><path class="b" d="M192.4889,145.74h-6.8341a3.8787,3.8787,0,0,1-3.8745-3.8745V137.021h2.3147v4.8447a1.5616,1.5616,0,0,0,1.56,1.56h6.8341a1.5615,1.5615,0,0,0,1.56-1.56V137.021h2.3147v4.8447A3.8787,3.8787,0,0,1,192.4889,145.74Z" transform="translate(-162.8658 -77.2219)"/><path class="b" d="M208.4018,145.74a1.2287,1.2287,0,0,1-.823-0.3151l-5.082-4.56v4.875h-2.4653v-7.6368a1.2324,1.2324,0,0,1,2.0557-.9173l6.3147,5.6657,6.3149-5.6657a1.2324,1.2324,0,0,1,2.0557.9173V145.74h-2.4653v-4.875l-5.0823,4.56A1.2283,1.2283,0,0,1,208.4018,145.74Z" transform="translate(-162.8658 -77.2219)"/><path class="b" d="M251.2035,145.74a1.1572,1.1572,0,0,1-.5633-0.1465l-9.7757-5.4455v5.592H238.55v-7.5618a1.1573,1.1573,0,0,1,1.7207-1.0109l9.7757,5.4455v-5.592h2.3147v7.5618A1.1575,1.1575,0,0,1,251.2035,145.74Z" transform="translate(-162.8658 -77.2219)"/><path class="b" d="M227.853,139.8772l5.4545,5.863h3.2735l-7.9273-8.54a1.1283,1.1283,0,0,0-1.5952.0005l-7.9273,8.5392h3.2735Z" transform="translate(-162.8658 -77.2219)"/><path d="M176.3314,138.1717a3.8618,3.8618,0,0,0-2.7517-1.1507l-6.8339-.0134a1.5616,1.5616,0,0,1-1.56-1.56v-4.8447h-2.3147v4.8447a3.8809,3.8809,0,0,0,3.8745,3.8745h0.2685l6.3231,0.0134H173.58a1.5615,1.5615,0,0,1,1.56,1.56V145.74h2.3147v-4.8447A3.8612,3.8612,0,0,0,176.3314,138.1717Z" transform="translate(-162.8658 -77.2219)"/><circle class="a" cx="1.6578" cy="66.8659" r="1.6523"/></svg>