<svg xmlns="http://www.w3.org/2000/svg" viewBox="0 0 68.8406 17.1247"><defs><style>.a{fill:#ed1c24;}.b{fill:#231f20;}</style></defs><title>he_logo_full_horiz</title><path class="a" d="M178.9536,213.6132a2.0073,2.0073,0,0,0,.18.2163,1.9712,1.9712,0,0,0,.3052.26l0.0071,0.006a1.963,1.963,0,0,0,2.1384.0493c0.0318-.0193.06-0.0435,0.09-0.0648a2.0641,2.0641,0,0,0,.4844-0.4754,1.9117,1.9117,0,0,0,.3188-0.663,1.9062,1.9062,0,0,0-.6192-1.971c-0.0206-.0181-0.0367-0.0407-0.0581-0.058a2.0459,2.0459,0,0,0-.5031-0.2945,1.9146,1.9146,0,0,0-.7371-0.1519,1.9377,1.9377,0,0,0-.7433.1491,2.018,2.018,0,0,0-.5624.3529c-0.008.0071-.0176,0.0122-0.0254,0.0194A1.9792,1.9792,0,0,0,178.9536,213.6132Z" transform="translate(-173.1958 -210.4659)"/><path class="a" d="M182.6018,220.6178a4.6976,4.6976,0,0,1,.8579-1.0355,4.69,4.69,0,0,1,2.0563-1.1023c0.1176-.0292.2361-0.0553,0.3559-0.0752l0.02,0.002c0.0424,0,.082-0.01.1238-0.0125l0.0087,0c0.0476-.003.0944-0.008,0.1412-0.0142l0.0092-.0014c0.0566-.0065.1131-0.0143,0.1688-0.0259l0.0094-.0014a2.0149,2.0149,0,0,0,.2889-0.09l0.0094-.0044c0.0317-.013.0624-0.0281,0.0931-0.0432a2.032,2.032,0,0,0,.2482-0.1347c0.0345-.0228.0678-0.0479,0.1009-0.0732a2.0356,2.0356,0,0,0,.1746-0.144q0.0542-.05.1051-0.1038a2.0316,2.0316,0,0,0,.1471-0.1783c0.024-.0306.0482-0.0611,0.07-0.0938a2.026,2.026,0,0,0,.1323-0.2438c0.0182-.036.0361-0.072,0.0515-0.1086a2.0371,2.0371,0,0,0,.0892-0.2874c0.0078-.03.0157-0.059,0.0218-0.0887a2.0262,2.0262,0,0,0,.0339-0.3364c0.0014-.0215.0027-0.0429,0.003-0.0643a2.01,2.01,0,0,0-.0313-0.3207c-0.003-.0248-0.0065-0.05-0.0109-0.0742a1.9829,1.9829,0,0,0-.0882-0.2943q-0.0116-.036-0.0251-0.0715a1.9979,1.9979,0,0,0-.1478-0.2829c-0.0086-.0155-0.0177-0.0307-0.0269-0.0459a1.98,1.98,0,0,0-.1757-0.2228c-0.0111-.0124-0.02-0.0269-0.0308-0.0391l-0.0262-.0294a2.0392,2.0392,0,0,0-.252-0.22c-0.0117-.0094-0.0243-0.0181-0.0362-0.0273-0.0529-.0375-0.1115-0.0668-0.1679-0.0993-0.0421-.0242-0.0814-0.0529-0.1254-0.0741l-0.0308-.0146a2.0321,2.0321,0,0,0-.3406-0.1233l-0.007-.0018a2.0709,2.0709,0,0,0-.2881-0.0456l-0.0028-.0007-0.0033,0c-0.0293-.0031-0.0568-0.0118-0.0865-0.0137-0.0576-.004-0.1153-0.0094-0.1726-0.0079-0.015,0-.0294.0035-0.0443,0.0045-0.03-.0005-0.06-0.0047-0.09-0.0032-0.0394.0025-.078,0.0079-0.1165,0.013a2.0329,2.0329,0,0,0-.2284.0361q-0.0724.0164-.1429,0.0378a2.025,2.025,0,0,0-.2127.0772c-0.0386.0157-.0771,0.0316-0.1144,0.05a2.0228,2.0228,0,0,0-.2421.1454c-0.0286.0188-.0571,0.0375-0.0845,0.0582l-0.0086.0059a2.0166,2.0166,0,0,0-.224.2033l-0.006.0073c-0.0383.0422-.0738,0.0868-0.1081,0.1323l-0.0058.0072c-0.0249.0316-.0484,0.0642-0.0715,0.0974l-0.0125.017-0.002.003-0.0028.0043c-0.0234.0347-.0521,0.0637-0.0736,0.1l-0.0085.0182c-0.078.0931-.1606,0.1818-0.2455,0.2683a4.4949,4.4949,0,0,1-1.4174.99,4.7015,4.7015,0,0,1-.5458.2c-0.0229.0067-.0448,0.0156-0.068,0.0218-0.0791.0213-.1623,0.0317-0.243,0.049-0.0749.0166-.15,0.0326-0.2259,0.0455-0.0361.0059-.0726,0.01-0.1088,0.0154s-0.0752.0117-.1132,0.016a4.3905,4.3905,0,0,1-.5065.0341l-0.0114.0008h-0.0048l-0.0113-.0008a4.3915,4.3915,0,0,1-.5065-0.0341c-0.0389-.0044-0.0771-0.0108-0.1155-0.0164-0.0355-.0051-0.0712-0.0094-0.1066-0.0151-0.0761-.013-0.151-0.0289-0.2258-0.0455-0.0807-.0173-0.1639-0.0277-0.2431-0.049-0.024-.0065-0.0466-0.0159-0.07-0.0229a4.91,4.91,0,0,1-.6608-0.2481c-0.0794-.0349-0.1559-0.0752-0.2328-0.1145-0.0547-.0287-0.1131-0.0511-0.1665-0.0819a4.7994,4.7994,0,0,1-1.0012-.765c-0.016-.016-0.03-0.0336-0.0461-0.05-0.0676-.0694-0.1346-0.14-0.1977-0.2133l-0.016-.0172c-0.0173-.0287-0.0359-0.0563-0.054-0.0843-0.0307-.0456-0.0642-0.088-0.0978-0.13a1.8831,1.8831,0,0,0-.1275-0.1531c-0.0315-.0326-0.0672-0.0594-0.1007-0.09a1.94,1.94,0,0,0-.238-0.188c-0.0234-.0154-0.0483-0.028-0.0724-0.0425a2.2533,2.2533,0,0,0-.2534-0.1239c-0.0232-.01-0.044-0.0241-0.0678-0.0332-0.0209-.0079-0.042-0.0149-0.063-0.0222a2.2158,2.2158,0,0,0-.2512-0.0713l-0.0082-.0021c-0.0454-.0091-0.0913-0.0143-0.1372-0.02a1.9123,1.9123,0,0,0-.2132-0.0214c-0.0574-.0015-0.115.004-0.1726,0.0079a2.0447,2.0447,0,0,0-.3807.06l-0.0071.0018a2.0321,2.0321,0,0,0-.3406.1233l-0.0307.0146a2.0386,2.0386,0,0,0-.2933.1734l-0.0363.0273a2.0439,2.0439,0,0,0-.252.22l-0.0258.029c-0.0262.0283-.0469,0.0611-0.0715,0.0908a2.0708,2.0708,0,0,0-.1719.2074c-0.0205.0429-.0365,0.0876-0.054,0.1317-0.0287.0533-.0606,0.1048-0.0841,0.1611-0.009.0236-.0173,0.0475-0.0251,0.0715a1.99,1.99,0,0,0-.0881.2943c-0.0044.0246-.0079,0.0494-0.011,0.0742a2.01,2.01,0,0,0-.0312.3207c0,0.0214.0016,0.0428,0.0029,0.0643a2.0454,2.0454,0,0,0,.0339.3364c0.0062,0.03.014,0.0592,0.0219,0.0887a2.03,2.03,0,0,0,.0893.2874c0.0154,0.0366.0333,0.0726,0.0515,0.1086a2.026,2.026,0,0,0,.1323.2438c0.0222,0.0326.0464,0.0631,0.07,0.0938a2.0316,2.0316,0,0,0,.1471.1783q0.051,0.054.1052,0.1038a2.0348,2.0348,0,0,0,.1745.144c0.0331,0.0253.0664,0.05,0.101,0.0732a2.0277,2.0277,0,0,0,.2482.1347c0.0307,0.0151.0614,0.03,0.0931,0.0432l0.0094,0.0044a2.0125,2.0125,0,0,0,.2889.09l0.0093,0.0014c0.0557,0.0116.1122,0.0194,0.1689,0.0259l0.0092,0.0014c0.0468,0.0062.0936,0.0112,0.1413,0.0142l0.0086,0c0.0417,0.0026.0815,0.0125,0.1238,0.0125l0.02-.002c0.12,0.02.2382,0.046,0.3559,0.0752a4.7886,4.7886,0,0,1,1.1676.4594,4.7268,4.7268,0,0,1,.8846.6452c0.0373,0.0339.0784,0.0623,0.1147,0.0976a5.0886,5.0886,0,0,1,.3218.3987,4.2988,4.2988,0,0,1,.3134.4924,4.6316,4.6316,0,0,1,.5043,1.5593,4.7572,4.7572,0,0,1,.05.6924c0,0.0351.0046,0.07,0.0037,0.1053a4.7878,4.7878,0,0,1-.1974,1.2392c-0.0346.1162-.0723,0.2315-0.116,0.3447l-0.012.0161c-0.0215.0365-.0331,0.0757-0.0521,0.1129l-0.004.0077c-0.0215.0425-.0411,0.0855-0.06,0.1289l-0.0035.0087c-0.0233.0521-.0452,0.1047-0.0636,0.1586l-0.0035.0088a2.0172,2.0172,0,0,0-.07.2943l-0.001.01c-0.0049.0339-.0075,0.068-0.01,0.1021a2.0272,2.0272,0,0,0-.01.2823c0.0021,0.0413.0068,0.0827,0.0118,0.1242a2.05,2.05,0,0,0,.0353.2235q0.0154,0.072.0361,0.1433a2.0524,2.0524,0,0,0,.0788.2173c0.0143,0.0363.0282,0.0726,0.0451,0.1083a2.0226,2.0226,0,0,0,.1428.2379c0.0217,0.0339.0437,0.0676,0.0674,0.1a2.0174,2.0174,0,0,0,.2022.2228c0.0214,0.0218.043,0.0435,0.0653,0.0639a2.045,2.045,0,0,0,.2726.2c0.0177,0.0121.0356,0.0241,0.0538,0.0352a2.0235,2.0235,0,0,0,.2922.136c0.023,0.01.0461,0.02,0.0694,0.0282a1.9909,1.9909,0,0,0,.2983.0736c0.0247,0.0054.05,0.01,0.0744,0.0146a1.9972,1.9972,0,0,0,.3187.0164c0.0177,0,.0355,0,0.0531,0a2.0224,2.0224,0,0,0,.33-0.0449l0.0387-.0076a2.0414,2.0414,0,0,0,.3177-0.1051l0.042-.0175a2.0353,2.0353,0,0,0,.2983-0.1644l0.0282-.0191a2.03,2.03,0,0,0,.2792-0.2307l0.0051-.0052a2.0436,2.0436,0,0,0,.2452-0.2972c0.0327-.0476.0667-0.0945,0.0946-0.1447a1.9112,1.9112,0,0,0,.09-0.1944c0.0182-.0427.037-0.0848,0.0522-0.1285l0.0023-.0081a2.2092,2.2092,0,0,0,.0663-0.2526c0.0044-.0218.0092-0.0436,0.013-0.0655a2.1543,2.1543,0,0,0,.0278-0.3565c0-.0227,0-0.0453,0-0.068a1.9349,1.9349,0,0,0-.0517-0.45,2.064,2.064,0,0,0-.1091-0.3149c-0.0219-.0515-0.0476-0.1007-0.0739-0.15-0.022-.065-0.0378-0.1316-0.0569-0.1974a4.7686,4.7686,0,0,1-.1864-1.4222c0.0017-.0814.0145-0.1628,0.02-0.2443a4.7213,4.7213,0,0,1,.0966-0.6661A4.6285,4.6285,0,0,1,182.6018,220.6178Z" transform="translate(-173.1958 -210.4659)"/><path class="b" d="M194.16,227.5482V225.08h1.7559v0.1692h-1.5726v0.97h1.4141v0.1692h-1.4141v0.9908h1.59v0.1692H194.16Z" transform="translate(-173.1958 -210.4659)"/><path class="b" d="M201.9666,227.5482l-1.7384-2.1932v2.1932H200.052V225.08h0.1728l1.7032,2.1475V225.08h0.1763v2.4683h-0.1375Z" transform="translate(-173.1958 -210.4659)"/><path class="b" d="M207.4993,227.5906a1.2028,1.2028,0,0,1-1.2412-1.27v-0.007a1.2326,1.2326,0,0,1,1.22-1.2766,1.2948,1.2948,0,0,1,.9027.3245l-0.12.1375a1.1082,1.1082,0,0,0-.7761-0.296,1.0576,1.0576,0,0,0-1.0362,1.0749v0.0356a1.03,1.03,0,0,0,1.0577,1.1143,1.2679,1.2679,0,0,0,.7863-0.2821v-0.7087h-0.825v-0.1692h1.0013V227.22A1.4844,1.4844,0,0,1,207.4993,227.5906Z" transform="translate(-173.1958 -210.4659)"/><path class="b" d="M212.6864,227.5482V225.08H212.87v2.4683h-0.1836Z" transform="translate(-173.1958 -210.4659)"/><path class="b" d="M219.0714,227.5482l-1.7382-2.1932v2.1932h-0.1763V225.08h0.1726l1.7032,2.1475V225.08h0.1763v2.4683h-0.1375Z" transform="translate(-173.1958 -210.4659)"/><path class="b" d="M224.4453,227.5869a0.963,0.963,0,0,1-1.0122-1.0649V225.08h0.1836v1.4244a0.8046,0.8046,0,0,0,.8355.917,0.7841,0.7841,0,0,0,.8215-0.8993V225.08h0.1833v1.4211A0.9681,0.9681,0,0,1,224.4453,227.5869Z" transform="translate(-173.1958 -210.4659)"/><path class="b" d="M229.7063,227.5482V225.08H229.89v2.4683h-0.1836Z" transform="translate(-173.1958 -210.4659)"/><path class="b" d="M235.0441,225.2492v2.299h-0.1833v-2.299H234V225.08h1.9041v0.1692h-0.86Z" transform="translate(-173.1958 -210.4659)"/><path class="b" d="M240.9785,226.5681v0.98h-0.1833v-0.9768l-1.0579-1.4915h0.2294l0.9237,1.326,0.9274-1.326h0.2187Z" transform="translate(-173.1958 -210.4659)"/><path class="b" d="M210.0061,222.4256H206.35a2.0748,2.0748,0,0,1-2.0726-2.0726v-2.5916h1.2382v2.5916a0.8353,0.8353,0,0,0,.8343.8343h3.6558a0.8353,0.8353,0,0,0,.8342-0.8343v-2.5916h1.2382v2.5916A2.0748,2.0748,0,0,1,210.0061,222.4256Z" transform="translate(-173.1958 -210.4659)"/><path class="b" d="M218.5184,222.4256a0.6573,0.6573,0,0,1-.44-0.1686l-2.7185-2.4392v2.6078h-1.3188V218.34a0.6593,0.6593,0,0,1,1.1-.4907l3.3779,3.0307,3.378-3.0307a0.6593,0.6593,0,0,1,1.1.4907v4.0852h-1.3188v-2.6078l-2.7186,2.4392A0.657,0.657,0,0,1,218.5184,222.4256Z" transform="translate(-173.1958 -210.4659)"/><path class="b" d="M241.4143,222.4256a0.619,0.619,0,0,1-.3013-0.0784l-5.2293-2.913v2.9913h-1.2382v-4.045a0.6191,0.6191,0,0,1,.92-0.5408l5.2293,2.913v-2.9913h1.2382v4.045A0.6192,0.6192,0,0,1,241.4143,222.4256Z" transform="translate(-173.1958 -210.4659)"/><path class="b" d="M228.9234,219.2893l2.9178,3.1363h1.7511l-4.2406-4.5681a0.6036,0.6036,0,0,0-.8533,0l-4.2406,4.5679h1.7511Z" transform="translate(-173.1958 -210.4659)"/><path class="b" d="M201.363,218.377a2.0658,2.0658,0,0,0-1.472-.6155l-3.6557-.0072a0.8353,0.8353,0,0,1-.8344-0.8344v-2.5916h-1.2382V216.92a2.076,2.076,0,0,0,2.0726,2.0726h0.1436L199.7614,219h0.13a0.8353,0.8353,0,0,1,.8343.8344v2.5916h1.2382V219.834A2.0654,2.0654,0,0,0,201.363,218.377Z" transform="translate(-173.1958 -210.4659)"/><circle class="a" cx="21.8509" cy="11.0758" r="0.8839"/></svg>